<?xml version="1.0" encoding="windows-1252"?>
<!-- Generator: Adobe Illustrator 16.0.0, SVG Export Plug-In . SVG Version: 6.00 Build 0)  -->
<!DOCTYPE svg PUBLIC "-//W3C//DTD SVG 1.1//EN" "http://www.w3.org/Graphics/SVG/1.1/DTD/svg11.dtd">
<svg version="1.1" id="Capa_1" xmlns="http://www.w3.org/2000/svg" xmlns:xlink="http://www.w3.org/1999/xlink" x="0px" y="0px" width="540.01px" height="540.01px" viewBox="0 0 540.01 540.01" style="enable-background:new 0 0 540.01 540.01;" xml:space="preserve">
<g>
	<g>
		<path d="M456.151,221.189c-4.908-15.612-10.582-31.273-16.867-46.635c-6.328-15.459-13.268-30.587-20.766-44.976    c-0.27-0.52-0.525-1.059-0.801-1.579c-8.422-16.034-19.951-35.704-34.174-54.774c-7.266-9.743-15.24-19.314-23.869-28.177    C334.835,19.535,304.546,0,270.011,0c-34.651,0-65.031,19.663-89.934,45.306c-8.611,8.874-16.561,18.458-23.812,28.195    c-14.125,18.984-25.588,38.544-33.966,54.493c-0.104,0.202-0.202,0.41-0.312,0.612c-7.454,14.229-14.357,29.211-20.667,44.511    c-6.383,15.471-12.13,31.267-17.111,47.014c-3.703,11.702-6.977,23.348-9.792,34.805c-7.509,30.515-11.763,59.591-11.763,83.991    c0,112.761,91.078,201.084,207.352,201.084c116.273,0,207.352-88.329,207.352-201.084c0-23.52-3.959-51.384-10.967-80.687    C463.489,246.066,460.073,233.661,456.151,221.189z M190.463,52.05c21.842,12.803,49.352,20.508,79.285,20.508    c30.116,0,57.735-7.785,79.591-20.729c9.363,9.425,17.963,19.829,25.729,30.429c-23.238,21.145-61.775,32.717-105.319,32.717    c-43.385,0-81.739-11.493-104.958-32.491C172.544,71.885,181.125,61.481,190.463,52.05z M131.638,136.653    c33.739,25.912,83.44,42.313,139.107,42.313c55.068,0,104.328-16.046,138.074-41.475c7.84,15.245,15.098,31.261,21.584,47.607    c-31.908,33.054-91.346,52.265-159.658,52.265c-69.125,0-129.076-19.669-160.631-53.458    C116.595,167.682,123.823,151.782,131.638,136.653z M93.063,232.909c31.469,38.281,98.979,64.75,177.443,64.75    c77.871,0,144.953-26.071,176.709-63.887c4.791,16.151,8.746,32.105,11.695,47.412c-24.131,45.465-99.266,75.839-188.404,75.839    c-90.264,0-166.005-31.151-189.071-77.577C84.392,264.402,88.345,248.735,93.063,232.909z M441.028,431.147    c-35.93,34.34-99.004,57.143-170.809,57.143c-72.681,0-136.335-23.354-171.966-58.397c-14.933-26.836-23.36-57.772-23.36-90.967    c0-2.002,0.098-4.107,0.153-6.169c23.207,52.424,101.727,91.01,195.167,91.01c93.133,0,171.317-38.335,194.762-90.496    c0.049,1.885,0.141,3.819,0.141,5.655C465.122,372.646,456.407,404.018,441.028,431.147z"/>
	</g>
</g>
<g>
</g>
<g>
</g>
<g>
</g>
<g>
</g>
<g>
</g>
<g>
</g>
<g>
</g>
<g>
</g>
<g>
</g>
<g>
</g>
<g>
</g>
<g>
</g>
<g>
</g>
<g>
</g>
<g>
</g>
<style xmlns="" type="text/css" id="undefined"/></svg>